<?xml version="1.0" standalone="no"?>
<!DOCTYPE svg PUBLIC "-//W3C//DTD SVG 20010904//EN"
 "http://www.w3.org/TR/2001/REC-SVG-20010904/DTD/svg10.dtd">
<svg version="1.0" xmlns="http://www.w3.org/2000/svg"
 width="48.000000pt" height="48.000000pt" viewBox="0 0 48.000000 48.000000"
 preserveAspectRatio="xMidYMid meet">

<g transform="translate(0.000000,48.000000) scale(0.100000,-0.100000)"
fill="#000000" stroke="none">
<path d="M188 433 c-9 -10 -19 -33 -23 -50 -5 -26 -12 -33 -31 -33 -14 0 -29
-9 -37 -22 -17 -27 -50 -248 -42 -271 11 -26 63 -37 185 -37 124 0 176 11 185
39 8 25 -30 258 -45 276 -14 16 -50 21 -50 5 0 -5 7 -13 17 -18 14 -8 40 -117
42 -179 1 -10 -34 -13 -140 -13 -108 0 -140 -3 -137 -12 3 -10 44 -14 146 -16
116 -2 142 -5 142 -17 0 -27 -38 -35 -162 -35 -167 0 -163 -3 -143 125 25 161
12 145 114 145 102 0 117 9 106 62 -10 48 -32 68 -75 68 -23 0 -43 -7 -52 -17z
m90 -50 c3 -32 2 -33 -37 -33 -38 0 -41 2 -41 28 0 37 8 44 45 40 26 -3 30 -7
33 -35z"/>
<path d="M170 267 c0 -33 30 -57 72 -57 39 0 68 24 68 58 0 30 -18 28 -30 -3
-7 -19 -17 -25 -40 -25 -23 0 -33 6 -40 25 -12 32 -30 32 -30 2z"/>
</g>
</svg>
