<?xml version="1.0" standalone="no"?>
<!DOCTYPE svg PUBLIC "-//W3C//DTD SVG 20010904//EN"
 "http://www.w3.org/TR/2001/REC-SVG-20010904/DTD/svg10.dtd">
<svg version="1.0" xmlns="http://www.w3.org/2000/svg"
 width="48.000000pt" height="48.000000pt" viewBox="0 0 48.000000 48.000000"
 preserveAspectRatio="xMidYMid meet">

<g transform="translate(0.000000,48.000000) scale(0.100000,-0.100000)"
fill="#000000" stroke="none">
<path d="M169 371 c-36 -36 -40 -95 -9 -133 l19 -25 -30 -22 c-45 -34 -78
-121 -45 -121 7 0 16 13 19 28 3 16 14 39 25 52 18 22 20 23 43 7 30 -22 68
-22 98 0 23 16 25 15 43 -7 11 -13 22 -36 25 -52 3 -15 12 -28 19 -28 33 0 0
87 -45 121 l-30 22 19 25 c52 65 3 162 -80 162 -33 0 -48 -6 -71 -29z m123
-18 c23 -20 24 -80 1 -105 -20 -23 -80 -24 -105 -1 -23 20 -24 80 -1 105 20
23 80 24 105 1z m-27 -173 c-3 -5 -15 -10 -25 -10 -10 0 -22 5 -25 10 -4 6 7
10 25 10 18 0 29 -4 25 -10z"/>
</g>
</svg>
